<svg xmlns="http://www.w3.org/2000/svg" version="1.1" xmlns:xlink="http://www.w3.org/1999/xlink" width="1000" height="1000"><metadata><rdf:RDF xmlns:rdf="http://www.w3.org/1999/02/22-rdf-syntax-ns#" xmlns:dc="http://purl.org/dc/elements/1.1/"><rdf:Description><dc:creator>RealFaviconGenerator</dc:creator><dc:source>https://realfavicongenerator.net</dc:source></rdf:Description></rdf:RDF></metadata><g clip-path="url(#SvgjsClipPath1054)"><rect width="1000" height="1000" fill="#ffffff"></rect><g transform="matrix(20.930232558139537,0,0,20.930232558139537,49.99999999999994,60.46511627906972)"><svg xmlns="http://www.w3.org/2000/svg" width="43" height="42" viewBox="0 0 43 42" fill="none"><path d="M5.125 34.4158L8.403 31.1119C6.213 28.3155 4.89401 24.7955 4.89401 20.9653C4.89401 17.2211 6.17801 13.559 8.50801 10.653L8.68401 10.433L11.027 12.5801L10.875 12.7749C9.046 15.1299 8.07901 17.9598 8.07901 20.9583C8.07901 27.6592 13.036 33.2013 19.444 34.0953L19.446 31.3717C15.047 30.6264 11.443 27.0888 10.748 22.5466L10.701 22.241L13.707 22.2174L13.743 22.4445C14.329 26.1887 17.315 28.7034 21.172 28.7034C24.883 28.7034 27.987 26.052 28.729 22.5309L25.198 22.5171C24.555 24.1159 23.003 25.2491 21.19 25.2491C18.803 25.2491 16.861 23.2915 16.861 20.885C16.861 18.4785 18.803 16.5225 21.19 16.5225C22.887 16.5225 24.345 17.5216 25.054 18.9591L28.629 18.9731C27.768 15.6193 24.765 13.1241 21.172 13.1241C17.819 13.1241 14.691 15.6179 13.736 19.053L13.682 19.2486H10.76L10.819 18.9316C11.649 14.5055 15.149 11.1639 19.444 10.4483L19.446 7.82814C17.156 8.14323 15.004 9.03071 13.152 10.4896L12.956 10.6433L10.857 8.27445L11.078 8.09892C13.982 5.77275 17.479 4.54243 21.191 4.54243C24.992 4.54243 28.486 5.87131 31.261 8.07805L34.499 4.81486L34.573 4.73364C30.923 1.77715 26.263 0 21.183 0C9.483 0 0 9.40241 0 21.0001C0 26.1607 1.88501 30.8794 4.99901 34.5353L5.12901 34.4195L5.125 34.4158Z" fill="#4C2F48"></path><path d="M37.13 7.20825L36.993 7.32865L36.994 7.32995L33.788 10.5608C36.099 13.3956 37.488 17.0197 37.488 20.9656C37.488 24.7351 36.189 28.4191 33.827 31.3381L33.638 31.5738L31.51 29.3053L31.65 29.1245C33.471 26.7722 34.433 23.9484 34.433 20.9586C34.433 14.2257 29.431 8.66043 22.978 7.80592L22.976 10.4644C27.921 11.3355 31.697 15.6835 31.697 20.9132C31.697 26.1429 27.922 30.4896 22.978 31.3617L22.976 34.0926C25.294 33.7872 27.56 32.9087 29.376 31.5293L29.563 31.3879L31.659 33.5629L31.433 33.7472C28.546 36.0943 24.909 37.3866 21.191 37.3866C17.276 37.3866 13.68 35.9863 10.867 33.659L7.62701 36.9238L7.52002 37.0359C11.21 40.1283 15.973 42.0004 21.183 42.0004C32.88 42.0004 42.365 32.5998 42.365 21.0005C42.365 15.7155 40.381 10.8996 37.13 7.20825Z" fill="#4C2F48"></path></svg></g></g><defs><clipPath id="SvgjsClipPath1054"><rect width="1000" height="1000" x="0" y="0" rx="500" ry="500"></rect></clipPath></defs></svg>